{"title":"Rickie Lee Jones","uid":4858605,"size":239325318,"categoryP":"audio","categoryS":"flac","magnet":"?xt=urn:btih:bd118001851a7fd2d92228d01f944a36e1c169ed&amp;dn=Rickie+Lee+Jones&amp;tr=udp%3A%2F%2Ftracker.openbittorrent.com%3A80&amp;tr=udp%3A%2F%2Fopen.demonii.com%3A1337&amp;tr=udp%3A%2F%2Ftracker.coppersurfer.tk%3A6969&amp;tr=udp%3A%2F%2Fexodus.desync.com%3A6969","seeders":1,"leechers":1,"uploader":"sowingmyseed","files":13,"time":1240166413,"description":"Exact Audio Copy V0.99 prebeta 4 from 23. January 2008\n\nEAC extraction logfile from 19. April 2009, 8:59\n\nRickie Lee Jones / Rickie Lee Jones\n\nUsed drive  : ATAPI   DVD D  DH16D3P   Adapter: 0  ID: 1\n\nRead mode               : Secure\nUtilize accurate stream : Yes\nDefeat audio cache      : No\nMake use of C2 pointers : No\n\nRead offset correction                      : 6\nOverread into Lead-In and Lead-Out          : No\nFill up missing offset samples with silence : Yes\nDelete leading and trailing silent blocks   : No\nNull samples used in CRC calculations       : No\nUsed interface                              : Installed external ASPI interface\nGap handling                                : Not detected, thus appended to previous track\n\nUsed output format : Internal WAV Routines\nSample format      : 44.100 Hz; 16 Bit; Stereo\n\n\nTOC of the extracted CD\n\n     Track |   Start  |  Length  | Start sector | End sector \n    ---------------------------------------------------------\n        1  |  0:00.33 |  3:31.35 |        33    |    15892   \n        2  |  3:31.68 |  2:35.32 |     15893    |    27549   \n        3  |  6:07.25 |  3:18.63 |     27550    |    42462   \n        4  |  9:26.13 |  4:07.62 |     42463    |    61049   \n        5  | 13:34.00 |  3:20.13 |     61050    |    76062   \n        6  | 16:54.13 |  4:08.12 |     76063    |    94674   \n        7  | 21:02.25 |  4:06.48 |     94675    |   113172   \n        8  | 25:08.73 |  3:52.57 |    113173    |   130629   \n        9  | 29:01.55 |  6:03.50 |    130630    |   157904   \n       10  | 35:05.30 |  4:54.55 |    157905    |   180009   \n       11  | 40:00.10 |  2:13.55 |    180010    |   190039   \n\n\nTrack  1\n\n     Filename E:MusicRickie Lee JonesRickie Lee JonesRickie Lee Jones - Rickie Lee Jones - 01. Chuck E.'s In Love.wav\n\n     Peak level 96.7 %\n     Track quality 100.0 %\n     Copy CRC FF79750C\n     Accurately ripped (confidence 3)  [61949FA9]\n     Copy OK\n\nTrack  2\n\n     Filename E:MusicRickie Lee JonesRickie Lee JonesRickie Lee Jones - Rickie Lee Jones - 02. On Saturday Afternoons In 1963.wav\n\n     Peak level 71.8 %\n     Track quality 100.0 %\n     Copy CRC 6AC81EC4\n     Accurately ripped (confidence 3)  [BA5A3C6B]\n     Copy OK\n\nTrack  3\n\n     Filename E:MusicRickie Lee JonesRickie Lee JonesRickie Lee Jones - Rickie Lee Jones - 03. Night Train.wav\n\n     Peak level 79.7 %\n     Track quality 100.0 %\n     Copy CRC D65CC1E1\n     Accurately ripped (confidence 3)  [8B587540]\n     Copy OK\n\nTrack  4\n\n     Filename E:MusicRickie Lee JonesRickie Lee JonesRickie Lee Jones - Rickie Lee Jones - 04. Young Blood.wav\n\n     Peak level 94.4 %\n     Track quality 100.0 %\n     Copy CRC 196A0212\n     Accurately ripped (confidence 3)  [95A2DC71]\n     Copy OK\n\nTrack  5\n\n     Filename E:MusicRickie Lee JonesRickie Lee JonesRickie Lee Jones - Rickie Lee Jones - 05. Easy Money.wav\n\n     Peak level 69.9 %\n     Track quality 100.0 %\n     Copy CRC 69BFE04B\n     Accurately ripped (confidence 3)  [05139641]\n     Copy OK\n\nTrack  6\n\n     Filename E:MusicRickie Lee JonesRickie Lee JonesRickie Lee Jones - Rickie Lee Jones - 06. The Last Chance Texaco.wav\n\n     Peak level 100.0 %\n     Track quality 100.0 %\n     Copy CRC 82C01E2D\n     Accurately ripped (confidence 3)  [EFD606D4]\n     Copy OK\n\nTrack  7\n\n     Filename E:MusicRickie Lee JonesRickie Lee JonesRickie Lee Jones - Rickie Lee Jones - 07. Danny's All-Star Joint.wav\n\n     Peak level 100.0 %\n     Track quality 100.0 %\n     Copy CRC EC975CE2\n     Accurately ripped (confidence 3)  [FEBCDA1E]\n     Copy OK\n\nTrack  8\n\n     Filename E:MusicRickie Lee JonesRickie Lee JonesRickie Lee Jones - Rickie Lee Jones - 08. Coolsville.wav\n\n     Peak level 80.8 %\n     Track quality 99.9 %\n     Copy CRC EB56D2B1\n     Accurately ripped (confidence 3)  [32912FFF]\n     Copy OK\n\nTrack  9\n\n     Filename E:MusicRickie Lee JonesRickie Lee JonesRickie Lee Jones - Rickie Lee Jones - 09. Weasel And The White Boys Cool.wav\n\n     Peak level 97.9 %\n     Track quality 100.0 %\n     Copy CRC 513B9D5A\n     Accurately ripped (confidence 3)  [B08DB3EF]\n     Copy OK\n\nTrack 10\n\n     Filename E:MusicRickie Lee JonesRickie Lee JonesRickie Lee Jones - Rickie Lee Jones - 10. Company.wav\n\n     Peak level 64.3 %\n     Track quality 100.0 %\n     Copy CRC 5C2D3B85\n     Accurately ripped (confidence 3)  [2B1A8071]\n     Copy OK\n\nTrack 11\n\n     Filename E:MusicRickie Lee JonesRickie Lee JonesRickie Lee Jones - Rickie Lee Jones - 11. After Hours (Twelve Bars Past Goodnight).wav\n\n     Peak level 52.5 %\n     Track quality 100.0 %\n     Copy CRC 06CF8A3C\n     Accurately ripped (confidence 3)  [316EBB3C]\n     Copy OK\n\n\nAll tracks accurately ripped\n\nNo errors occurred\n\nEnd of status report\n","torrent":{"xt":"urn:btih:bd118001851a7fd2d92228d01f944a36e1c169ed","amp;dn":"Rickie+Lee+Jones","amp;tr":["udp%3A%2F%2Ftracker.openbittorrent.com%3A80","udp%3A%2F%2Fopen.demonii.com%3A1337","udp%3A%2F%2Ftracker.coppersurfer.tk%3A6969","udp%3A%2F%2Fexodus.desync.com%3A6969"],"infoHash":"bd118001851a7fd2d92228d01f944a36e1c169ed","infoHashBuffer":{"type":"Buffer","data":[189,17,128,1,133,26,127,210,217,34,40,208,31,148,74,54,225,193,105,237]},"announce":[],"urlList":[]}}